<?xml version="1.0" encoding="utf-8"?>
<!-- Generator: Adobe Illustrator 28.0.0, SVG Export Plug-In . SVG Version: 6.00 Build 0)  -->
<svg version="1.1" xmlns="http://www.w3.org/2000/svg" xmlns:xlink="http://www.w3.org/1999/xlink" x="0px" y="0px"
	 viewBox="0 0 200 200" style="enable-background:new 0 0 200 200;" xml:space="preserve">
<style type="text/css">
	.st0{fill:#0F0628;}
	.st1{fill:#DFDDE4;}
	.st2{fill:#FFFFFF;}
	.st3{fill:#2B2B2B;}
	.st4{fill:url(#SVGID_1_);}
	.st5{fill:url(#SVGID_00000080888523713004019080000011422922189602664118_);}
	.st6{fill:url(#SVGID_00000082351080441025157060000018430055201966606754_);}
	.st7{fill:url(#SVGID_00000126324412541435939480000010340155967590182546_);}
	.st8{fill:url(#SVGID_00000036224106533203809390000001652144238574619053_);}
	.st9{fill:url(#SVGID_00000143584889166365653010000001362067840703564704_);}
	.st10{fill:url(#SVGID_00000149370069085488846010000012215893266102210486_);}
	.st11{fill:url(#SVGID_00000150803583656096933040000016107958698265936771_);}
	.st12{fill:url(#SVGID_00000074440873025996653680000014699832691004266940_);}
	.st13{fill:url(#SVGID_00000132072172762371508800000002584130224596866465_);}
	.st14{fill:url(#SVGID_00000123411813099078713860000013881358328089739164_);}
	.st15{fill:url(#SVGID_00000041280772254680505390000002442019827434222223_);}
</style>
<g id="图层_2">
</g>
<g id="图层_1">
	<g>
		<linearGradient id="SVGID_1_" gradientUnits="userSpaceOnUse" x1="216.6468" y1="77.0662" x2="118.2732" y2="133.8622">
			<stop  offset="0" style="stop-color:#16A2E3"/>
			<stop  offset="0.3575" style="stop-color:#CB21DA"/>
			<stop  offset="1" style="stop-color:#CCCAB7"/>
		</linearGradient>
		<path class="st4" d="M179.9,14.7c0-3.8-4.3-6.1-7.5-3.9c-29.6,21-59.2,41.9-88.9,62.9c0.9,0.6,1.8,1.3,2.7,1.9
			c3.3,2.3,7.7,2.3,11,0c14.9-10.6,29.8-21.1,44.7-31.7c0,38.1,0,76.1,0,114.2c0,3.1,1.5,6,4,7.7c11.3,8,22.6,16,33.9,24
			C179.9,131.6,179.9,73.2,179.9,14.7z"/>
		
			<linearGradient id="SVGID_00000106112519386722763050000004661253906841402557_" gradientUnits="userSpaceOnUse" x1="95.0137" y1="57.7408" x2="-18.4592" y2="123.2544">
			<stop  offset="0" style="stop-color:#16A2E3"/>
			<stop  offset="0.3575" style="stop-color:#CB21DA"/>
			<stop  offset="1" style="stop-color:#E2DBD7"/>
		</linearGradient>
		<path style="fill:url(#SVGID_00000106112519386722763050000004661253906841402557_);" d="M20.1,14.7c0-3.8,4.3-6.1,7.5-3.9
			C50.3,27,73.1,43.1,95.9,59.3C90.4,63.1,85,67,79.5,70.9C61,57.8,42.4,44.6,23.9,31.5c0,1,0,1.9,0,2.9c0,1.8,0.9,3.6,2.4,4.6
			c9.2,6.5,18.5,13.1,27.7,19.6c2.5,1.8,4,4.7,4,7.7c0,30.6,0,61.2,0,91.9c0,3.1-1.5,6-4,7.7c-11.3,8-22.6,16-33.9,24
			c0-0.6,0-1.2,0-1.8c0-1.8,0.9-3.6,2.4-4.6c4.7-3.3,9.4-6.7,14.2-10c1.5-1.1,2.4-2.8,2.4-4.6c0-37.7,0-75.5,0-113.2
			c0-1.8-0.9-3.6-2.4-4.6c-4.2-3-8.4-5.9-12.6-8.9c-2.5-1.8-4-4.7-4-7.7C20.1,27.8,20.1,21.3,20.1,14.7z"/>
	</g>
</g>
</svg>
